# xmcd CD database file
#
# Track frame offsets:
#	150
#	16825
#	30175
#	44607
#	56527
#	74462
#	85937
#	97847
#	108412
#	122787
#	134640
#	145542
#	160457
#	173277
#	185225
#	195282
#	207407
#	224359
#
# Disc length: 3124 seconds
#
# Revision: 0
# Processed by: cddbd v1.4PL0 Copyright (c) Steve Scherf et al.
# Submitted via: CDex 1.50
#
DISCID=f90c3212
DTITLE=Tinoco - O show da vida
DYEAR=1900
DGENRE=Country
TTITLE0=Amigo
TTITLE1=Moda da mula preta
TTITLE2=Brasil caboclo
TTITLE3=Baile da roça
TTITLE4=Cabocla Tereza
TTITLE5=Feijão queimado
TTITLE6=Pingo d´água
TTITLE7=O sanfoneiro só tocava isso
TTITLE8=Moda do agrônomo
TTITLE9=Saudade de Matão
TTITLE10=Vai Zé
TTITLE11=Maringá
TTITLE12=Chalana
TTITLE13=João-de-Barro
TTITLE14=Rosa Morena
TTITLE15=Cabocla
TTITLE16=Amigo
TTITLE17=Recordação
EXTD=
EXTT0=
EXTT1=
EXTT2=
EXTT3=
EXTT4=
EXTT5=
EXTT6=
EXTT7=
EXTT8=
EXTT9=
EXTT10=
EXTT11=
EXTT12=
EXTT13=
EXTT14=
EXTT15=
EXTT16=
EXTT17=
PLAYORDER=
